<svg width="45" height="45" viewBox="0 0 45 45" fill="none" xmlns="http://www.w3.org/2000/svg">
<rect width="45" height="45" fill="#EB5757"/>
<path d="M16.228 8.576V10.22H12.796V11.996H15.364V13.592H12.796V17H10.744V8.576H16.228Z" fill="#F2F2F2"/>
<path d="M27.76 8.576V13.616C27.76 14.12 27.884 14.508 28.132 14.78C28.38 15.052 28.744 15.188 29.224 15.188C29.704 15.188 30.072 15.052 30.328 14.78C30.584 14.508 30.712 14.12 30.712 13.616V8.576H32.764V13.604C32.764 14.356 32.604 14.992 32.284 15.512C31.964 16.032 31.532 16.424 30.988 16.688C30.452 16.952 29.852 17.084 29.188 17.084C28.524 17.084 27.928 16.956 27.4 16.7C26.88 16.436 26.468 16.044 26.164 15.524C25.86 14.996 25.708 14.356 25.708 13.604V8.576H27.76Z" fill="#F2F2F2"/>
<path d="M13.9 26.576C14.788 26.576 15.564 26.752 16.228 27.104C16.892 27.456 17.404 27.952 17.764 28.592C18.132 29.224 18.316 29.956 18.316 30.788C18.316 31.612 18.132 32.344 17.764 32.984C17.404 33.624 16.888 34.12 16.216 34.472C15.552 34.824 14.78 35 13.9 35H10.744V26.576H13.9ZM13.768 33.224C14.544 33.224 15.148 33.012 15.58 32.588C16.012 32.164 16.228 31.564 16.228 30.788C16.228 30.012 16.012 29.408 15.58 28.976C15.148 28.544 14.544 28.328 13.768 28.328H12.796V33.224H13.768Z" fill="#F2F2F2"/>
<path d="M28.728 35.084C27.936 35.084 27.208 34.9 26.544 34.532C25.888 34.164 25.364 33.652 24.972 32.996C24.588 32.332 24.396 31.588 24.396 30.764C24.396 29.94 24.588 29.2 24.972 28.544C25.364 27.888 25.888 27.376 26.544 27.008C27.208 26.64 27.936 26.456 28.728 26.456C29.52 26.456 30.244 26.64 30.9 27.008C31.564 27.376 32.084 27.888 32.46 28.544C32.844 29.2 33.036 29.94 33.036 30.764C33.036 31.588 32.844 32.332 32.46 32.996C32.076 33.652 31.556 34.164 30.9 34.532C30.244 34.9 29.52 35.084 28.728 35.084ZM28.728 33.212C29.4 33.212 29.936 32.988 30.336 32.54C30.744 32.092 30.948 31.5 30.948 30.764C30.948 30.02 30.744 29.428 30.336 28.988C29.936 28.54 29.4 28.316 28.728 28.316C28.048 28.316 27.504 28.536 27.096 28.976C26.696 29.416 26.496 30.012 26.496 30.764C26.496 31.508 26.696 32.104 27.096 32.552C27.504 32.992 28.048 33.212 28.728 33.212Z" fill="#F2F2F2"/>
</svg>
