<?xml version="1.0" encoding="utf-8"?>
<!-- Generator: Adobe Illustrator 26.4.1, SVG Export Plug-In . SVG Version: 6.00 Build 0)  -->
<svg version="1.1" id="Слой_1" xmlns="http://www.w3.org/2000/svg" xmlns:xlink="http://www.w3.org/1999/xlink" x="0px" y="0px"
	 viewBox="0 0 800 800" style="enable-background:new 0 0 800 800;" xml:space="preserve">
<style type="text/css">
	.st0{fill:#EB5757;}
</style>
<path class="st0" d="M730.7,81.3c0,0,73.9-28.8,67.8,41.2c-2.1,28.9-20.5,129.6-34.9,238.7l-49.3,323.2c0,0-4.1,47.4-41.1,55.6
	s-92.3-28.8-102.6-37.1c-8.2-6.2-153.9-98.8-205.3-144c-14.4-12.3-30.8-37.1,2.1-65.8l215.6-205.9c24.6-24.6,49.3-82.3-53.4-12.3
	L242.1,470.4c0,0-32.9,20.5-94.4,2.1L14.3,431.2c0,0-49.3-30.9,34.9-61.7C254.4,272.7,507,174,730.7,81.3z"/>
</svg>
