<?xml version="1.0" encoding="utf-8"?>
<!-- Generator: Adobe Illustrator 26.4.1, SVG Export Plug-In . SVG Version: 6.00 Build 0)  -->
<svg version="1.1" id="Слой_1" xmlns="http://www.w3.org/2000/svg" xmlns:xlink="http://www.w3.org/1999/xlink" x="0px" y="0px"
	 viewBox="0 0 800 800" style="enable-background:new 0 0 800 800;" xml:space="preserve">
<style type="text/css">
	.st0{fill:#EB5757;}
</style>
<path class="st0" d="M484.5,392.5c-14.6-5.5-14.6-26.4-15.6-41.1c-3.6-52.1,14.6-131.6-7.3-165.5c-15.6-20.1-90.6-18.3-136.2-15.6
	c-12.9,1.9-28.3,4.6-39.3,10.1c-11,5.5-22,14.6-22,22.8c0,11.9,27.4,10.1,37.4,25.6c11,16.5,11,52.1,11,81.3
	c0,33.8-5.5,78.6-19.2,80.5c-21.1,0.9-32.9-20.1-43.9-35.7c-22-30.2-43.9-67.6-60.4-104.3c-8.2-19.2-12.8-40.3-24.7-48.4
	c-18.3-12.8-51.3-13.7-83.2-12.8C52,190.5,10,186.9,1.7,204.2c-6.4,19.2,7.3,37.4,14.6,53C53.7,338.6,94,409.9,143.4,477.6
	c45.8,63.1,88.7,113.4,172.8,139.8c23.8,7.3,128,28.3,149,0c7.3-11,5.5-35.7,9.1-53.9c3.6-18.3,8.2-36.5,25.6-37.4
	c14.6-0.9,22.8,11.8,32.1,21.1c10.1,10.1,18.3,18.3,25.6,27.4c17.3,17.4,35.7,41.2,57.6,50.3c30.2,12.8,76.8,9.1,120.6,7.3
	c35.7-0.9,61.2-8.2,64-29.3c1.9-16.5-16.5-40.3-27.5-53.9c-27.5-33.8-40.3-43.9-71.4-75c-13.7-13.7-31.1-28.3-31.1-44.8
	c-0.9-10.1,7.3-19.2,14.6-29.3c31.9-47.5,64-81.3,93.3-130.7c8.2-14.6,27.5-48.4,20.1-64.9c-8.2-18.3-53.9-12.8-82.3-12.8
	c-36.5,0-84.1-2.7-93.3,4.6c-17.4,11.9-24.7,31.1-32.9,49.4c-18.3,42-42.9,85-68.6,117C511.9,373.2,494.4,396.1,484.5,392.5
	L484.5,392.5z"/>
</svg>
